<?xml version="1.0" encoding="UTF-8" standalone="no"?>
<svg width="1412px" height="220px" viewBox="0 0 1412 220" version="1.1" xmlns="http://www.w3.org/2000/svg" xmlns:xlink="http://www.w3.org/1999/xlink" style="background: #FFFFFF;">
    <!-- Generator: Sketch 41 (35326) - http://www.bohemiancoding.com/sketch -->
    <title>gdg-zhengzhou</title>
    <desc>Created with Sketch.</desc>
    <defs>
        <radialGradient cx="98.685446%" cy="97.8271186%" fx="98.685446%" fy="97.8271186%" r="324.704225%" id="radialGradient-1">
            <stop stop-color="#BF360C" stop-opacity="0.2" offset="0%"></stop>
            <stop stop-color="#BF360C" stop-opacity="0.02" offset="100%"></stop>
        </radialGradient>
        <radialGradient cx="162.728302%" cy="157.694517%" fx="162.728302%" fy="157.694517%" r="263.10566%" id="radialGradient-2">
            <stop stop-color="#263238" stop-opacity="0.2" offset="0%"></stop>
            <stop stop-color="#263238" stop-opacity="0.02" offset="100%"></stop>
        </radialGradient>
        <radialGradient cx="-1.25065013%" cy="0.781%" fx="-1.25065013%" fy="0.781%" r="167.971194%" id="radialGradient-3">
            <stop stop-color="#FFFFFF" stop-opacity="0.1" offset="0%"></stop>
            <stop stop-color="#FFFFFF" stop-opacity="0" offset="100%"></stop>
        </radialGradient>
    </defs>
    <g id="Page-1" stroke="none" stroke-width="1" fill="none" fill-rule="evenodd">
        <g id="gdg-zhengzhou">
            <g id="logo-light">
                <g id="XMLID_60_">
                    <g id="XMLID_61_">
                        <g id="XMLID_62_">
                            <path d="M135.138889,99.66 L77.3325397,0 L0,0 L63.7634921,110 L0,220 L77.3325397,220 L135.138889,120.34 C138.779365,113.96 138.779365,106.04 135.138889,99.66 L135.138889,99.66 Z" id="XMLID_106_"></path>
                            <polygon id="XMLID_105_" fill="#FFC107" points="101.933333 175.78 83.6206349 144.21 39.6039683 220 77.3325397 220 102.484921 176.66"></polygon>
                            <path d="M135.138889,99.66 L77.3325397,0 L0,0 L63.7634921,110 L0,220 L77.3325397,220 L135.138889,120.34 C138.779365,113.96 138.779365,106.04 135.138889,99.66 L135.138889,99.66 Z" id="XMLID_104_"></path>
                            <polygon id="XMLID_103_" fill="#0F9D58" points="63.7634921 110 83.6206349 144.21 39.6039683 220 0 220"></polygon>
                            <path d="M135.138889,99.66 L77.3325397,0 L0,0 L63.7634921,110 L0,220 L77.3325397,220 L135.138889,120.34 C138.779365,113.96 138.779365,106.04 135.138889,99.66 L135.138889,99.66 Z" id="XMLID_102_"></path>
                            <polygon id="XMLID_101_" fill="#BF360C" opacity="0.2" points="77.3325397 218.24 40.5968254 218.24 39.6039683 220 77.3325397 220 102.484921 176.66 101.933333 175.78"></polygon>
                            <path d="M135.138889,99.66 L77.3325397,0 L0,0 L63.7634921,110 L0,220 L77.3325397,220 L135.138889,120.34 C138.779365,113.96 138.779365,106.04 135.138889,99.66 L135.138889,99.66 Z" id="XMLID_100_"></path>
                            <polygon id="XMLID_99_" fill="#263238" opacity="0.2" points="0.992857143 218.24 0 220 39.6039683 220 40.5968254 218.24"></polygon>
                            <path d="M135.138889,99.66 L77.3325397,0 L0,0 L63.7634921,110 L0,220 L77.3325397,220 L135.138889,120.34 C138.779365,113.96 138.779365,106.04 135.138889,99.66 L135.138889,99.66 Z" id="XMLID_98_"></path>
                            <polygon id="XMLID_96_" fill="#FFFFFF" opacity="0.2" points="0 220 0.992857143 220 64.3150794 110.88 63.7634921 110"></polygon>
                            <path d="M135.138889,99.66 L77.3325397,0 L0,0 L63.7634921,110 L0,220 L77.3325397,220 L135.138889,120.34 C138.779365,113.96 138.779365,106.04 135.138889,99.66 L135.138889,99.66 Z" id="XMLID_94_"></path>
                            <polygon id="XMLID_92_" fill="url(#radialGradient-1)" points="102.484921 176.66 83.6206349 144.21 78.9873016 152.13"></polygon>
                            <path d="M135.138889,99.66 L77.3325397,0 L0,0 L63.7634921,110 L0,220 L77.3325397,220 L135.138889,120.34 C138.779365,113.96 138.779365,106.04 135.138889,99.66 L135.138889,99.66 Z" id="XMLID_90_"></path>
                            <polygon id="XMLID_89_" fill="url(#radialGradient-2)" points="78.9873016 152.13 83.6206349 144.21 63.7634921 110 54.3865079 126.28"></polygon>
                            <path d="M135.138889,99.66 L77.3325397,0 L0,0 L63.7634921,110 L0,220 L77.3325397,220 L135.138889,120.34 C138.779365,113.96 138.779365,106.04 135.138889,99.66 L135.138889,99.66 Z" id="XMLID_88_"></path>
                            <g id="XMLID_85_" fill="#4285F4">
                                <g id="XMLID_86_">
                                    <polygon id="XMLID_87_" points="39.6039683 0 0 0 102.484921 176.66 122.231746 142.45"></polygon>
                                </g>
                            </g>
                            <path d="M135.138889,99.66 L77.3325397,0 L0,0 L63.7634921,110 L0,220 L77.3325397,220 L135.138889,120.34 C138.779365,113.96 138.779365,106.04 135.138889,99.66 L135.138889,99.66 Z" id="XMLID_84_"></path>
                            <path d="M135.138889,120.34 C138.889683,113.96 138.889683,106.04 135.138889,99.66 L77.3325397,0 L39.6039683,0 L122.231746,142.45 L135.138889,120.34 L135.138889,120.34 Z" id="XMLID_83_" fill="#DB4437"></path>
                            <path d="M135.138889,99.66 L77.3325397,0 L0,0 L63.7634921,110 L0,220 L77.3325397,220 L135.138889,120.34 C138.779365,113.96 138.779365,106.04 135.138889,99.66 L135.138889,99.66 Z" id="XMLID_82_"></path>
                            <polygon id="XMLID_71_" fill="#1A237E" opacity="0.2" points="122.231746 142.45 121.790476 141.57 102.484921 174.9 0.992857143 0 0 0 102.484921 176.66 122.231746 142.45"></polygon>
                            <path d="M135.138889,99.66 L77.3325397,0 L0,0 L63.7634921,110 L0,220 L77.3325397,220 L135.138889,120.34 C138.779365,113.96 138.779365,106.04 135.138889,99.66 L135.138889,99.66 Z" id="XMLID_69_"></path>
                            <path d="M77.3325397,1.76 L135.138889,101.42 C136.793651,104.39 137.67619,107.58 137.896825,110.88 C138.007143,107.03 137.124603,103.18 135.138889,99.66 L77.3325397,0 L0,0 L0.992857143,1.76 L77.3325397,1.76 L77.3325397,1.76 Z" id="XMLID_67_" fill="#FFFFFF" opacity="0.2"></path>
                            <path d="M135.138889,99.66 L77.3325397,0 L0,0 L63.7634921,110 L0,220 L77.3325397,220 L135.138889,120.34 C138.779365,113.96 138.779365,106.04 135.138889,99.66 L135.138889,99.66 Z" id="XMLID_66_"></path>
                            <path d="M122.231746,142.45 L135.028571,120.34 C137.014286,116.93 137.896825,112.97 137.786508,109.12 C137.67619,112.42 136.793651,115.61 135.028571,118.58 L121.680159,141.57 L122.231746,142.45 Z" id="XMLID_65_" fill="#3E2723" opacity="0.2"></path>
                            <path d="M135.138889,99.66 L77.3325397,0 L0,0 L63.7634921,110 L0,220 L77.3325397,220 L135.138889,120.34 C138.779365,113.96 138.779365,106.04 135.138889,99.66 L135.138889,99.66 Z" id="XMLID_64_"></path>
                            <path d="M135.138889,99.66 L77.3325397,0 L0,0 L63.7634921,110 L0,220 L77.3325397,220 L135.138889,120.34 C138.779365,113.96 138.779365,106.04 135.138889,99.66 L135.138889,99.66 Z" id="XMLID_63_" fill="url(#radialGradient-3)"></path>
                        </g>
                    </g>
                </g>
                <g id="XMLID_7_" transform="translate(185.000000, 9.000000)" fill="#757575">
                    <g id="Group-2" transform="translate(0.900000, 32.000000)">
                        <path d="M134.052301,74.005586 C134.052301,92.2657722 128.656485,107.007941 117.696234,117.729518 C105.21841,130.628916 89.0309623,137.162377 69.1338912,137.162377 C50.0799163,137.162377 33.8924686,130.628916 20.5715481,117.394469 C7.25062762,104.327547 0.505857741,87.9101314 0.505857741,68.6447974 C0.505857741,49.3794633 7.25062762,32.9620482 20.5715481,19.895126 C33.8924686,6.82820372 50.0799163,0.127217963 69.1338912,0.127217963 C78.576569,0.127217963 87.6820084,1.96998905 96.28159,5.65553122 C104.881172,9.34107338 111.794561,14.1992881 116.853138,20.3976999 L105.21841,31.9569003 C96.4502092,21.5703724 84.4782427,16.3771084 69.1338912,16.3771084 C55.307113,16.3771084 43.1665272,21.2353231 33.0493724,30.9517525 C22.9322176,40.6681818 17.8736402,53.2325301 17.8736402,68.812322 C17.8736402,84.3921139 22.9322176,96.9564622 33.0493724,106.672892 C43.1665272,116.389321 55.1384937,121.247536 69.1338912,121.247536 C83.9723849,121.247536 96.1129707,116.389321 106.061506,106.505367 C112.469038,100.13943 116.178661,91.2606243 117.190377,79.8689485 L69.1338912,79.8689485 L69.1338912,64.121632 L133.209205,64.121632 C133.715063,67.6396495 134.052301,70.8226177 134.052301,74.005586 L134.052301,74.005586 Z" id="XMLID_2_"></path>
                        <path d="M150.745607,134.314458 L150.745607,3.14266156 L191.214226,3.14266156 C211.448536,3.14266156 227.804603,9.17354874 239.945188,21.4028478 C252.085774,33.6321468 258.156067,49.3794633 258.156067,68.812322 C258.156067,88.2451807 252.085774,103.992497 239.945188,116.221796 C227.804603,128.451095 211.617155,134.481982 191.214226,134.481982 L150.745607,134.481982 L150.745607,134.314458 Z M167.776151,118.232092 L191.214226,118.232092 C206.389958,118.232092 218.530544,113.876451 227.467364,105.16517 C236.404184,96.4538883 240.788285,84.3921139 240.788285,68.6447974 C240.788285,53.0650055 236.404184,41.0032311 227.467364,32.2919496 C218.530544,23.5806681 206.389958,19.2250274 191.214226,19.2250274 L167.776151,19.2250274 L167.776151,118.232092 L167.776151,118.232092 Z" id="XMLID_4_"></path>
                        <path d="M402.156904,74.005586 C402.156904,92.2657722 396.761088,107.007941 385.800837,117.729518 C373.323013,130.628916 357.135565,137.162377 337.238494,137.162377 C318.184519,137.162377 301.997071,130.628916 288.676151,117.394469 C275.35523,104.327547 268.61046,87.9101314 268.61046,68.6447974 C268.61046,49.3794633 275.35523,32.9620482 288.676151,19.895126 C301.997071,6.82820372 318.184519,0.127217963 337.238494,0.127217963 C346.681172,0.127217963 355.786611,1.96998905 364.386192,5.65553122 C372.985774,9.34107338 379.899163,14.1992881 384.957741,20.3976999 L373.323013,31.9569003 C364.554812,21.5703724 352.582845,16.3771084 337.238494,16.3771084 C323.411715,16.3771084 311.27113,21.2353231 301.153975,30.9517525 C291.03682,40.6681818 285.978243,53.2325301 285.978243,68.812322 C285.978243,84.3921139 291.03682,96.9564622 301.153975,106.672892 C311.27113,116.389321 323.243096,121.247536 337.238494,121.247536 C352.076987,121.247536 364.217573,116.389321 374.166109,106.505367 C380.57364,100.13943 384.283264,91.2606243 385.294979,79.8689485 L337.238494,79.8689485 L337.238494,64.121632 L401.313808,64.121632 C401.819665,67.6396495 402.156904,70.8226177 402.156904,74.005586 L402.156904,74.005586 Z" id="XMLID_8_"></path>
                    </g>
                </g>
                <text id="Zhengzhou" font-family="ProductSans-Regular, Product Sans" font-size="160" font-weight="normal" fill="#757575">
                    <tspan x="639.08" y="163">Zhengzhou</tspan>
                </text>
            </g>
        </g>
    </g>
</svg>