<?xml version="1.0" encoding="UTF-8" standalone="no"?>
<svg width="1641px" height="204px" viewBox="0 0 1641 204" version="1.1" xmlns="http://www.w3.org/2000/svg" xmlns:xlink="http://www.w3.org/1999/xlink">
    <!-- Generator: Sketch 41 (35326) - http://www.bohemiancoding.com/sketch -->
    <title>gdg-logo</title>
    <desc>Created with Sketch.</desc>
    <defs></defs>
    <g id="Page-1" stroke="none" stroke-width="1" fill="none" fill-rule="evenodd">
        <g id="Artboard" transform="translate(0.000000, -16.000000)" fill="#757575">
            <g id="gdg-logo">
                <g id="XMLID_6_" transform="translate(200.000000, 0.000000)">
                    <path d="M159.9,136.4 C159.9,158.4 153.4,176 140.3,189.1 C125.5,204.7 106.2,212.5 82.4,212.5 C59.6,212.5 40.3,204.6 24.3,188.8 C8.4,173 0.4,153.4 0.4,130.1 C0.4,106.8 8.4,87.2 24.3,71.4 C40.2,55.6 59.6,47.7 82.4,47.7 C93.7,47.7 104.5,49.9 114.8,54.3 C125.1,58.7 133.3,64.6 139.5,71.9 L125.6,85.8 C115.1,73.2 100.7,67 82.3,67 C65.7,67 51.3,72.8 39.2,84.5 C27.1,96.2 21,111.3 21,130 C21,148.7 27.1,163.8 39.2,175.5 C51.3,187.2 65.7,193 82.3,193 C99.9,193 114.6,187.1 126.4,175.4 C134,167.8 138.4,157.1 139.6,143.5 L82.3,143.5 L82.3,124.5 L158.7,124.5 C159.5,128.6 159.9,132.6 159.9,136.4 L159.9,136.4 Z" id="XMLID_3_"></path>
                    <path d="M180.3,208.9 L180.3,51.1 L228.5,51.1 C252.7,51.1 272.1,58.4 286.7,73 C301.2,87.6 308.5,106.6 308.5,130 C308.5,153.4 301.2,172.3 286.7,187 C272.2,201.6 252.8,208.9 228.5,208.9 L180.3,208.9 Z M200.6,189.5 L228.6,189.5 C246.8,189.5 261.2,184.3 271.9,173.9 C282.5,163.5 287.9,148.9 287.9,130.1 C287.9,111.4 282.6,96.9 271.9,86.4 C261.2,75.9 246.8,70.6 228.6,70.6 L200.6,70.6 L200.6,189.5 Z" id="XMLID_20_"></path>
                    <path d="M481,136.4 C481,158.4 474.5,176 461.4,189.1 C446.6,204.7 427.3,212.5 403.5,212.5 C380.7,212.5 361.4,204.6 345.4,188.8 C329.5,173 321.5,153.4 321.5,130.1 C321.5,106.8 329.5,87.2 345.4,71.4 C361.3,55.6 380.7,47.7 403.5,47.7 C414.8,47.7 425.6,49.9 435.9,54.3 C446.2,58.7 454.4,64.6 460.6,71.9 L446.7,85.8 C436.2,73.2 421.8,67 403.4,67 C386.8,67 372.4,72.8 360.3,84.5 C348.2,96.2 342.1,111.3 342.1,130 C342.1,148.7 348.2,163.8 360.3,175.5 C372.4,187.2 386.8,193 403.4,193 C421,193 435.7,187.1 447.5,175.4 C455.1,167.8 459.5,157.1 460.7,143.5 L403.4,143.5 L403.4,124.5 L479.8,124.5 C480.6,128.6 481,132.6 481,136.4 L481,136.4 Z" id="XMLID_23_"></path>
                    <text id="Zhengzhou" font-family="ProductSans-Regular, Product Sans" font-size="184" font-weight="normal">
                        <tspan x="554.092" y="177">Zhengzhou</tspan>
                    </text>
                </g>
                <g id="XMLID_261_" transform="translate(0.000000, 16.000000)">
                    <polygon id="XMLID_259_" points="32.3 0 0 0 92.3 160 108.5 132"></polygon>
                    <path d="M120.9,91 L68.3,0 L36.1,0 L110.4,128.8 L120.9,110.6 C122.6,107.8 123.7,104.4 123.7,100.8 C123.6,97.2 122.6,93.9 120.9,91 L120.9,91 Z" id="XMLID_258_"></path>
                    <polygon id="XMLID_257_" points="56.3 104.1 0.9 200 33.2 200 72.5 132"></polygon>
                    <polygon id="XMLID_256_" points="74.3 135.3 37 200 69.2 200 90.5 163.2"></polygon>
                </g>
            </g>
        </g>
    </g>
</svg>