<?xml version="1.0" encoding="UTF-8" standalone="no"?>
<svg width="875px" height="219px" viewBox="0 0 875 219" version="1.1" xmlns="http://www.w3.org/2000/svg" xmlns:xlink="http://www.w3.org/1999/xlink">
    <!-- Generator: Sketch 41 (35326) - http://www.bohemiancoding.com/sketch -->
    <title>logo-white</title>
    <desc>Created with Sketch.</desc>
    <defs></defs>
    <g id="Page-1" stroke="none" stroke-width="1" fill="none" fill-rule="evenodd">
        <g id="Artboard" fill="#FFFFFF">
            <g id="logo-white">
                <g id="XMLID_7_" transform="translate(194.000000, 7.000000)">
                    <path d="M81.5,44.8 C81.5,55.7 78.3,64.5 71.8,70.9 C64.4,78.6 54.8,82.5 43,82.5 C31.7,82.5 22.1,78.6 14.2,70.7 C6.3,62.9 2.3,53.1 2.3,41.6 C2.3,30.1 6.3,20.3 14.2,12.5 C22.1,4.7 31.7,0.7 43,0.7 C48.6,0.7 54,1.8 59.1,4 C64.2,6.2 68.3,9.1 71.3,12.8 L64.4,19.7 C59.2,13.5 52.1,10.4 43,10.4 C34.8,10.4 27.6,13.3 21.6,19.1 C15.6,24.9 12.6,32.4 12.6,41.7 C12.6,51 15.6,58.5 21.6,64.3 C27.6,70.1 34.7,73 43,73 C51.8,73 59,70.1 64.9,64.2 C68.7,60.4 70.9,55.1 71.5,48.3 L43,48.3 L43,38.9 L81,38.9 C81.3,41 81.5,42.9 81.5,44.8 L81.5,44.8 Z" id="XMLID_2_"></path>
                    <path d="M91.4,80.8 L91.4,2.5 L115.4,2.5 C127.4,2.5 137.1,6.1 144.3,13.4 C151.5,20.7 155.1,30.1 155.1,41.7 C155.1,53.3 151.5,62.7 144.3,70 C137.1,77.3 127.5,80.9 115.4,80.9 L91.4,80.9 L91.4,80.8 Z M101.5,71.2 L115.4,71.2 C124.4,71.2 131.6,68.6 136.9,63.4 C142.2,58.2 144.8,51 144.8,41.6 C144.8,32.3 142.2,25.1 136.9,19.9 C131.6,14.7 124.4,12.1 115.4,12.1 L101.5,12.1 L101.5,71.2 L101.5,71.2 Z" id="XMLID_4_"></path>
                    <path d="M240.5,44.8 C240.5,55.7 237.3,64.5 230.8,70.9 C223.4,78.6 213.8,82.5 202,82.5 C190.7,82.5 181.1,78.6 173.2,70.7 C165.3,62.9 161.3,53.1 161.3,41.6 C161.3,30.1 165.3,20.3 173.2,12.5 C181.1,4.7 190.7,0.7 202,0.7 C207.6,0.7 213,1.8 218.1,4 C223.2,6.2 227.3,9.1 230.3,12.8 L223.4,19.7 C218.2,13.5 211.1,10.4 202,10.4 C193.8,10.4 186.6,13.3 180.6,19.1 C174.6,24.9 171.6,32.4 171.6,41.7 C171.6,51 174.6,58.5 180.6,64.3 C186.6,70.1 193.7,73 202,73 C210.8,73 218,70.1 223.9,64.2 C227.7,60.4 229.9,55.1 230.5,48.3 L202,48.3 L202,38.9 L240,38.9 C240.3,41 240.5,42.9 240.5,44.8 L240.5,44.8 Z" id="XMLID_8_"></path>
                    <path d="M276.8,80.8 L276.8,2.5 L300.8,2.5 C312.8,2.5 322.5,6.1 329.7,13.4 C336.9,20.7 340.5,30.1 340.5,41.7 C340.5,53.3 336.9,62.7 329.7,70 C322.5,77.3 312.9,80.9 300.8,80.9 L276.8,80.9 L276.8,80.8 Z M286.9,71.2 L300.8,71.2 C309.8,71.2 317,68.6 322.3,63.4 C327.6,58.2 330.2,51 330.2,41.6 C330.2,32.3 327.6,25.1 322.3,19.9 C317,14.7 309.8,12.1 300.8,12.1 L286.9,12.1 L286.9,71.2 L286.9,71.2 Z" id="XMLID_10_"></path>
                    <path d="M373.4,82.6 C365.3,82.6 358.7,79.9 353.7,74.5 C348.6,69.1 346.1,62.3 346.1,54 C346.1,46.2 348.6,39.5 353.5,33.9 C358.4,28.3 364.7,25.5 372.4,25.5 C380.3,25.5 386.7,28.1 391.5,33.3 C396.3,38.5 398.7,45.4 398.7,54.1 L398.6,56 L356.3,56 C356.6,61.4 358.4,65.7 361.7,68.8 C365,71.9 368.9,73.5 373.3,73.5 C380.5,73.5 385.4,70.4 388,64.3 L397,68 C395.2,72.2 392.4,75.6 388.4,78.4 C384.2,81.2 379.3,82.6 373.4,82.6 L373.4,82.6 Z M387.9,47.6 C387.7,44.5 386.3,41.6 383.7,38.8 C381.1,36 377.3,34.6 372.2,34.6 C368.5,34.6 365.3,35.8 362.5,38.1 C359.8,40.4 357.9,43.6 356.9,47.5 L387.9,47.5 L387.9,47.6 Z" id="XMLID_13_"></path>
                    <polygon id="XMLID_16_" points="419.7 80.8 398 27.2 409 27.2 424.8 68.8 425 68.8 441 27.2 451.7 27.2 429.8 80.8 419.7 80.8"></polygon>
                    <polygon id="XMLID_18_" points="467.6 80.8 457.5 80.8 457.5 2.5 503.2 2.5 503.2 12.1 467.5 12.1 467.5 37.8 499.7 37.8 499.7 47.2 467.5 47.2 467.5 80.8"></polygon>
                    <path d="M533.7,82.6 C525.6,82.6 519,79.9 514,74.5 C508.9,69.1 506.4,62.3 506.4,54 C506.4,46.2 508.9,39.5 513.8,33.9 C518.7,28.3 525,25.5 532.7,25.5 C540.6,25.5 547,28.1 551.8,33.3 C556.6,38.5 559,45.4 559,54.1 L558.9,56 L516.6,56 C516.9,61.4 518.7,65.7 522,68.8 C525.3,71.9 529.2,73.5 533.6,73.5 C540.8,73.5 545.7,70.4 548.3,64.3 L557.3,68 C555.5,72.2 552.7,75.6 548.7,78.4 C544.4,81.2 539.5,82.6 533.7,82.6 L533.7,82.6 Z M548.1,47.6 C547.9,44.5 546.5,41.6 543.9,38.8 C541.3,36 537.5,34.6 532.4,34.6 C528.7,34.6 525.5,35.8 522.7,38.1 C520,40.4 518.1,43.6 517.1,47.5 L548.1,47.5 L548.1,47.6 Z" id="XMLID_20_"></path>
                    <path d="M585.5,82.6 C579.5,82.6 574.6,81.1 570.7,78.2 C566.8,75.3 563.9,71.6 562.1,67.3 L571.1,63.6 C573.9,70.3 578.8,73.7 585.6,73.7 C588.7,73.7 591.3,73 593.3,71.6 C595.3,70.2 596.3,68.4 596.3,66.1 C596.3,62.6 593.9,60.2 589,59 L578.2,56.4 C574.8,55.5 571.5,53.9 568.5,51.4 C565.4,49 563.9,45.7 563.9,41.5 C563.9,36.8 566,32.9 570.2,30 C574.4,27 579.4,25.6 585.1,25.6 C589.8,25.6 594.1,26.7 597.8,28.8 C601.5,31 604.2,34 605.8,38 L597,41.6 C595,36.9 590.9,34.5 584.8,34.5 C581.8,34.5 579.3,35.1 577.3,36.4 C575.3,37.6 574.2,39.3 574.2,41.4 C574.2,44.5 576.6,46.5 581.3,47.6 L591.9,50.1 C596.9,51.3 600.7,53.3 603.1,56.1 C605.5,58.9 606.7,62.2 606.7,65.7 C606.7,70.5 604.7,74.5 600.8,77.7 C596.8,81 591.7,82.6 585.5,82.6 L585.5,82.6 Z" id="XMLID_27_"></path>
                    <path d="M636.9,81.7 C631.3,81.7 627,80.2 624,77.2 C621,74.2 619.6,70 619.6,64.5 L619.6,36.4 L610.2,36.4 L610.2,27.2 L619.6,27.2 L619.6,10.8 L629.7,10.8 L629.7,27.2 L642.8,27.2 L642.8,36.4 L629.7,36.4 L629.7,63.7 C629.7,69.5 632.1,72.5 636.9,72.5 C638.7,72.5 640.3,72.2 641.5,71.6 L645,80.2 C642.8,81.2 640.1,81.7 636.9,81.7 L636.9,81.7 Z" id="XMLID_29_"></path>
                    <g id="Group" transform="translate(2.300000, 107.000000)">
                        <path d="M48.5,76.9 L0.8,76.9 L0.8,66.8 C15.1,52.4 24.2,43.1 28.3,38.7 C31.9,34.7 34.3,31.6 35.5,29.6 C36.7,27.5 37.4,25 37.4,21.9 C37.4,18.8 36.2,16 33.7,13.6 C31.2,11.2 27.9,10 23.7,10 C19.9,10 16.8,11.1 14.5,13.3 C12.2,15.5 10.7,17.9 10,20.5 L0.8,16.8 C2,12.9 4.6,9.1 8.6,5.6 C12.5,2.1 17.6,0.4 23.9,0.4 C30.8,0.4 36.5,2.5 41,6.7 C45.4,10.9 47.7,16 47.7,21.9 C47.7,29.2 43.7,37 35.8,45.3 L13.9,67.3 L48.6,67.3 L48.6,76.9 L48.5,76.9 Z" id="XMLID_46_"></path>
                        <path d="M106.1,67.4 C100.6,74.9 93.3,78.7 84.3,78.7 C75.3,78.7 68.1,74.9 62.5,67.4 C57,59.9 54.2,50.6 54.2,39.5 C54.2,28.3 57,19 62.5,11.6 C68,4.1 75.3,0.4 84.3,0.4 C93.3,0.4 100.5,4.1 106.1,11.6 C111.6,19.1 114.4,28.4 114.4,39.5 C114.4,50.6 111.6,59.9 106.1,67.4 Z M84.3,69.1 C90.3,69.1 95.1,66.3 98.7,60.7 C102.3,55.1 104.1,48.1 104.1,39.6 C104.1,31.1 102.3,24 98.7,18.4 C95.1,12.8 90.3,10 84.3,10 C78.2,10 73.4,12.8 69.9,18.4 C66.3,24 64.5,31 64.5,39.6 C64.5,48.1 66.3,55.1 69.9,60.7 C73.5,66.3 78.3,69.1 84.3,69.1 Z" id="XMLID_48_"></path>
                        <polygon id="XMLID_51_" points="146.3 76.9 136.2 76.9 136.2 14.6 121.7 20.9 117.9 12.4 139.9 2.1 146.4 2.1 146.4 76.9"></polygon>
                        <path d="M184.5,29.1 C190.3,29.1 195.7,31.5 200.6,36.3 C205.5,41.1 207.9,46.9 207.9,53.6 C207.9,60.2 205.4,66.1 200.3,71.1 C195.2,76.1 189.2,78.6 182.3,78.6 C174.9,78.6 168.7,76.1 163.9,71 C159,65.9 156.6,60.1 156.6,53.6 C156.6,46.7 159.5,38.9 165.4,30.4 L185.7,0.3 L193.8,5.9 L176,30.6 L176.2,30.8 C178,29.7 180.7,29.1 184.5,29.1 Z M182.3,68.9 C186.5,68.9 190.2,67.4 193.2,64.5 C196.2,61.6 197.7,58 197.7,53.7 C197.7,49.5 196.2,45.9 193.2,42.9 C190.2,39.9 186.5,38.5 182.3,38.5 C178.1,38.5 174.4,40 171.4,42.9 C168.3,45.9 166.8,49.4 166.8,53.7 C166.8,58 168.3,61.6 171.3,64.5 C174.3,67.5 178,68.9 182.3,68.9 Z" id="XMLID_53_"></path>
                    </g>
                    <text id="Zhengzhou" font-family="ProductSans-Regular, Product Sans" font-size="94" font-weight="normal">
                        <tspan x="228.422" y="183">Zhengzhou</tspan>
                    </text>
                </g>
                <g id="XMLID_261_">
                    <polygon id="XMLID_259_" points="35.4258065 0 0 0 101.232258 176 119 145.2"></polygon>
                    <path d="M132.6,100.1 L74.9096774,0 L39.5935484,0 L121.083871,141.68 L132.6,121.66 C134.464516,118.58 135.670968,114.84 135.670968,110.88 C135.56129,106.92 134.464516,103.29 132.6,100.1 L132.6,100.1 Z" id="XMLID_258_"></path>
                    <polygon id="XMLID_257_" points="61.7483871 114.51 0.987096774 220 36.4129032 220 79.516129 145.2"></polygon>
                    <polygon id="XMLID_256_" points="81.4903226 148.83 40.5806452 220 75.8967742 220 99.2580645 179.52"></polygon>
                </g>
            </g>
        </g>
    </g>
</svg>